<svg width="335" height="40" viewBox="0 0 335 40" fill="none" xmlns="http://www.w3.org/2000/svg">
<path d="M48.344 5.304L39.56 39H29.624L24.248 16.824L18.68 39H8.744L0.2 5.304H8.984L13.832 29.832L19.832 5.304H28.856L34.616 29.832L39.512 5.304H48.344ZM56.5884 9.432C55.1484 9.432 53.9644 9.016 53.0364 8.184C52.1404 7.32 51.6924 6.264 51.6924 5.016C51.6924 3.736 52.1404 2.68 53.0364 1.848C53.9644 0.983997 55.1484 0.551997 56.5884 0.551997C57.9964 0.551997 59.1484 0.983997 60.0444 1.848C60.9724 2.68 61.4364 3.736 61.4364 5.016C61.4364 6.264 60.9724 7.32 60.0444 8.184C59.1484 9.016 57.9964 9.432 56.5884 9.432ZM60.6684 12.216V39H52.4604V12.216H60.6684ZM74.8246 3.48V39H66.6166V3.48H74.8246ZM79.1409 25.56C79.1409 22.808 79.6529 20.392 80.6769 18.312C81.7329 16.232 83.1569 14.632 84.9489 13.512C86.7409 12.392 88.7409 11.832 90.9489 11.832C92.7089 11.832 94.3089 12.2 95.7489 12.936C97.2209 13.672 98.3729 14.664 99.2049 15.912V3.48H107.413V39H99.2049V35.16C98.4369 36.44 97.3329 37.464 95.8929 38.232C94.4849 39 92.8369 39.384 90.9489 39.384C88.7409 39.384 86.7409 38.824 84.9489 37.704C83.1569 36.552 81.7329 34.936 80.6769 32.856C79.6529 30.744 79.1409 28.312 79.1409 25.56ZM99.2049 25.608C99.2049 23.56 98.6289 21.944 97.4769 20.76C96.3569 19.576 94.9809 18.984 93.3489 18.984C91.7169 18.984 90.3249 19.576 89.1729 20.76C88.0529 21.912 87.4929 23.512 87.4929 25.56C87.4929 27.608 88.0529 29.24 89.1729 30.456C90.3249 31.64 91.7169 32.232 93.3489 32.232C94.9809 32.232 96.3569 31.64 97.4769 30.456C98.6289 29.272 99.2049 27.656 99.2049 25.608ZM111.719 25.56C111.719 22.808 112.231 20.392 113.255 18.312C114.311 16.232 115.735 14.632 117.527 13.512C119.319 12.392 121.319 11.832 123.527 11.832C125.415 11.832 127.063 12.216 128.471 12.984C129.911 13.752 131.015 14.76 131.783 16.008V12.216H139.991V39H131.783V35.208C130.983 36.456 129.863 37.464 128.423 38.232C127.015 39 125.367 39.384 123.479 39.384C121.303 39.384 119.319 38.824 117.527 37.704C115.735 36.552 114.311 34.936 113.255 32.856C112.231 30.744 111.719 28.312 111.719 25.56ZM131.783 25.608C131.783 23.56 131.207 21.944 130.055 20.76C128.935 19.576 127.559 18.984 125.927 18.984C124.295 18.984 122.903 19.576 121.751 20.76C120.631 21.912 120.071 23.512 120.071 25.56C120.071 27.608 120.631 29.24 121.751 30.456C122.903 31.64 124.295 32.232 125.927 32.232C127.559 32.232 128.935 31.64 130.055 30.456C131.207 29.272 131.783 27.656 131.783 25.608ZM162.249 11.928C165.385 11.928 167.881 12.952 169.737 15C171.625 17.016 172.569 19.8 172.569 23.352V39H164.409V24.456C164.409 22.664 163.945 21.272 163.017 20.28C162.089 19.288 160.841 18.792 159.273 18.792C157.705 18.792 156.457 19.288 155.529 20.28C154.601 21.272 154.137 22.664 154.137 24.456V39H145.929V12.216H154.137V15.768C154.969 14.584 156.089 13.656 157.497 12.984C158.905 12.28 160.489 11.928 162.249 11.928ZM210.381 5.304V11.88H196.653V18.984H206.925V25.368H196.653V39H188.445V5.304H210.381ZM213.063 25.56C213.063 22.808 213.575 20.392 214.599 18.312C215.655 16.232 217.079 14.632 218.871 13.512C220.663 12.392 222.663 11.832 224.871 11.832C226.759 11.832 228.407 12.216 229.815 12.984C231.255 13.752 232.359 14.76 233.127 16.008V12.216H241.335V39H233.127V35.208C232.327 36.456 231.207 37.464 229.767 38.232C228.359 39 226.711 39.384 224.823 39.384C222.647 39.384 220.663 38.824 218.871 37.704C217.079 36.552 215.655 34.936 214.599 32.856C213.575 30.744 213.063 28.312 213.063 25.56ZM233.127 25.608C233.127 23.56 232.551 21.944 231.399 20.76C230.279 19.576 228.903 18.984 227.271 18.984C225.639 18.984 224.247 19.576 223.095 20.76C221.975 21.912 221.415 23.512 221.415 25.56C221.415 27.608 221.975 29.24 223.095 30.456C224.247 31.64 225.639 32.232 227.271 32.232C228.903 32.232 230.279 31.64 231.399 30.456C232.551 29.272 233.127 27.656 233.127 25.608ZM245.641 25.56C245.641 22.808 246.153 20.392 247.177 18.312C248.233 16.232 249.657 14.632 251.449 13.512C253.241 12.392 255.241 11.832 257.449 11.832C259.209 11.832 260.809 12.2 262.249 12.936C263.721 13.672 264.873 14.664 265.705 15.912V3.48H273.913V39H265.705V35.16C264.937 36.44 263.833 37.464 262.393 38.232C260.985 39 259.337 39.384 257.449 39.384C255.241 39.384 253.241 38.824 251.449 37.704C249.657 36.552 248.233 34.936 247.177 32.856C246.153 30.744 245.641 28.312 245.641 25.56ZM265.705 25.608C265.705 23.56 265.129 21.944 263.977 20.76C262.857 19.576 261.481 18.984 259.849 18.984C258.217 18.984 256.825 19.576 255.673 20.76C254.553 21.912 253.993 23.512 253.993 25.56C253.993 27.608 254.553 29.24 255.673 30.456C256.825 31.64 258.217 32.232 259.849 32.232C261.481 32.232 262.857 31.64 263.977 30.456C265.129 29.272 265.705 27.656 265.705 25.608ZM283.979 9.432C282.539 9.432 281.355 9.016 280.427 8.184C279.531 7.32 279.083 6.264 279.083 5.016C279.083 3.736 279.531 2.68 280.427 1.848C281.355 0.983997 282.539 0.551997 283.979 0.551997C285.387 0.551997 286.539 0.983997 287.435 1.848C288.363 2.68 288.827 3.736 288.827 5.016C288.827 6.264 288.363 7.32 287.435 8.184C286.539 9.016 285.387 9.432 283.979 9.432ZM288.059 12.216V39H279.851V12.216H288.059ZM302.215 3.48V39H294.007V3.48H302.215ZM306.532 25.56C306.532 22.808 307.044 20.392 308.068 18.312C309.124 16.232 310.548 14.632 312.34 13.512C314.132 12.392 316.132 11.832 318.34 11.832C320.228 11.832 321.876 12.216 323.284 12.984C324.724 13.752 325.828 14.76 326.596 16.008V12.216H334.804V39H326.596V35.208C325.796 36.456 324.676 37.464 323.236 38.232C321.828 39 320.18 39.384 318.292 39.384C316.116 39.384 314.132 38.824 312.34 37.704C310.548 36.552 309.124 34.936 308.068 32.856C307.044 30.744 306.532 28.312 306.532 25.56ZM326.596 25.608C326.596 23.56 326.02 21.944 324.868 20.76C323.748 19.576 322.372 18.984 320.74 18.984C319.108 18.984 317.716 19.576 316.564 20.76C315.444 21.912 314.884 23.512 314.884 25.56C314.884 27.608 315.444 29.24 316.564 30.456C317.716 31.64 319.108 32.232 320.74 32.232C322.372 32.232 323.748 31.64 324.868 30.456C326.02 29.272 326.596 27.656 326.596 25.608Z" fill="white"/>
</svg>
